<svg width="17" height="21" viewBox="0 0 17 21" fill="none" xmlns="http://www.w3.org/2000/svg">
<path d="M15.9375 8.67188C15.9375 7.94141 15.3398 7.34375 14.6094 7.34375C13.8457 7.34375 13.2812 7.94141 13.2812 8.67188H13.0156V7.875C13.0156 7.14453 12.418 6.54688 11.6875 6.54688C10.9238 6.54688 10.3594 7.14453 10.3594 7.875V8.67188H10.0938V7.34375C10.0938 6.61328 9.49609 6.01562 8.76562 6.01562C8.00195 6.01562 7.4375 6.61328 7.4375 7.34375V8.67188H7.17188V2.03125C7.17188 1.30078 6.57422 0.703125 5.84375 0.703125C5.08008 0.703125 4.51562 1.30078 4.51562 2.03125V11.1953L3.45312 9.76758C3.02148 9.16992 2.19141 9.03711 1.59375 9.46875C0.996094 9.90039 0.863281 10.7305 1.29492 11.3281L5.54492 17.1719C5.77734 17.5039 6.17578 17.7031 6.64062 17.7031H13.5469C14.1445 17.7031 14.6758 17.3047 14.8086 16.707L15.8711 12.1914C15.9043 12.0918 15.9375 11.9922 15.9375 11.8594V8.67188ZM7.4375 11.3281V14.5156H7.17188V11.3281H7.4375ZM10.3594 11.3281V14.5156H10.0938V11.3281H10.3594ZM13.2812 11.3281V14.5156H13.0156V11.3281H13.2812Z" fill="#800000"/>
</svg>
