<svg width="31" height="31" viewBox="0 0 31 31" fill="none" xmlns="http://www.w3.org/2000/svg">
<path d="M15.4086 7.1853C11.6586 7.1853 8.67031 10.2322 8.67031 13.9236C8.67031 17.6736 11.6586 20.6619 15.4086 20.6619C19.1 20.6619 22.1469 17.6736 22.1469 13.9236C22.1469 10.2322 19.1 7.1853 15.4086 7.1853ZM15.4086 18.3181C13.0063 18.3181 11.0141 16.3845 11.0141 13.9236C11.0141 11.5212 12.9477 9.58765 15.4086 9.58765C17.8109 9.58765 19.7445 11.5212 19.7445 13.9236C19.7445 16.3845 17.8109 18.3181 15.4086 18.3181ZM23.9633 6.95093C23.9633 6.07202 23.2602 5.3689 22.3813 5.3689C21.5023 5.3689 20.7992 6.07202 20.7992 6.95093C20.7992 7.82983 21.5023 8.53296 22.3813 8.53296C23.2602 8.53296 23.9633 7.82983 23.9633 6.95093ZM28.4164 8.53296C28.2992 6.42358 27.8305 4.54858 26.307 3.02515C24.7836 1.50171 22.9086 1.03296 20.7992 0.915771C18.6313 0.798584 12.1273 0.798584 9.95938 0.915771C7.85 1.03296 6.03359 1.50171 4.45156 3.02515C2.92813 4.54858 2.45938 6.42358 2.34219 8.53296C2.225 10.7009 2.225 17.2048 2.34219 19.3728C2.45938 21.4822 2.92813 23.2986 4.45156 24.8806C6.03359 26.4041 7.85 26.8728 9.95938 26.99C12.1273 27.1072 18.6313 27.1072 20.7992 26.99C22.9086 26.8728 24.7836 26.4041 26.307 24.8806C27.8305 23.2986 28.2992 21.4822 28.4164 19.3728C28.5336 17.2048 28.5336 10.7009 28.4164 8.53296ZM25.6039 21.658C25.1938 22.8298 24.2563 23.7087 23.143 24.1775C21.3852 24.8806 17.2836 24.7048 15.4086 24.7048C13.475 24.7048 9.37344 24.8806 7.67422 24.1775C6.50234 23.7087 5.62344 22.8298 5.15469 21.658C4.45156 19.9587 4.62734 15.8572 4.62734 13.9236C4.62734 12.0486 4.45156 7.94702 5.15469 6.18921C5.62344 5.07593 6.50234 4.19702 7.67422 3.72827C9.37344 3.02515 13.475 3.20093 15.4086 3.20093C17.2836 3.20093 21.3852 3.02515 23.143 3.72827C24.2563 4.13843 25.1352 5.07593 25.6039 6.18921C26.307 7.94702 26.1313 12.0486 26.1313 13.9236C26.1313 15.8572 26.307 19.9587 25.6039 21.658Z" fill="black"/>
</svg>
